<svg width="19" height="19" viewBox="0 0 19 19" fill="none" xmlns="http://www.w3.org/2000/svg">
<path d="M1.94727 13.7391V16.9877H5.18489L14.7337 7.39799L11.4961 4.14946L1.94727 13.7391ZM18.8779 14.7007L15.2086 18.3824L10.7191 13.8777L12.2472 12.3444L13.1106 13.2107L15.2431 11.0623L16.4691 12.2924L15.2086 13.5225L16.1237 14.3888L17.3497 13.176L18.8779 14.7007ZM5.06402 8.17763L0.557251 3.68167L4.22655 0L5.74608 1.53331L3.61356 3.68167L4.53736 4.59992L6.66124 2.45156L7.88722 3.68167L6.66124 4.90312L7.52461 5.76939L5.06402 8.17763ZM17.2375 4.8598C17.5742 4.52195 17.5742 3.99353 17.2375 3.63835L15.2172 1.64592C14.8977 1.30807 14.3366 1.30807 13.9998 1.64592L12.4113 3.23121L15.6489 6.47974L17.2375 4.8598Z" fill="#4E1D9A"/>
</svg>
