<svg width="20" height="21" viewBox="0 0 20 21" fill="none" xmlns="http://www.w3.org/2000/svg">
<path d="M8.23529 0.5C6.98722 0.5 5.79026 0.995797 4.90773 1.87832C4.02521 2.76085 3.52941 3.9578 3.52941 5.20588C3.52941 6.45396 4.02521 7.65092 4.90773 8.53344C5.79026 9.41597 6.98722 9.91177 8.23529 9.91177C9.48337 9.91177 10.6803 9.41597 11.5629 8.53344C12.4454 7.65092 12.9412 6.45396 12.9412 5.20588C12.9412 3.9578 12.4454 2.76085 11.5629 1.87832C10.6803 0.995797 9.48337 0.5 8.23529 0.5ZM2.36353 11.0882C2.05369 11.087 1.74665 11.1469 1.46003 11.2646C1.1734 11.3823 0.912829 11.5554 0.693246 11.774C0.473664 11.9926 0.299394 12.2524 0.180431 12.5385C0.0614681 12.8246 0.000152367 13.1313 0 13.4412C0 15.4306 0.98 16.9306 2.51177 17.9082C4.02 18.8694 6.05294 19.3235 8.23529 19.3235H8.29412C8.25489 19.1299 8.23518 18.9328 8.23529 18.7353V14.0294C8.23521 13.3428 8.47536 12.6778 8.91413 12.1496C9.3529 11.6214 9.96263 11.2634 10.6376 11.1376C10.6407 11.1212 10.6438 11.1047 10.6471 11.0882H2.36353ZM11.7647 11.6765V12.2647H11.1765C10.7084 12.2647 10.2596 12.4506 9.92864 12.7816C9.59769 13.1125 9.41177 13.5614 9.41177 14.0294V18.7353C9.41177 19.2033 9.59769 19.6522 9.92864 19.9831C10.2596 20.3141 10.7084 20.5 11.1765 20.5H18.2353C18.7033 20.5 19.1522 20.3141 19.4831 19.9831C19.8141 19.6522 20 19.2033 20 18.7353V14.0294C20 13.5614 19.8141 13.1125 19.4831 12.7816C19.1522 12.4506 18.7033 12.2647 18.2353 12.2647H17.6471V11.6765C17.6471 11.2084 17.4611 10.7596 17.1302 10.4286C16.7992 10.0977 16.3504 9.91177 15.8824 9.91177H13.5294C13.0614 9.91177 12.6125 10.0977 12.2816 10.4286C11.9506 10.7596 11.7647 11.2084 11.7647 11.6765ZM13.5294 11.0882H15.8824C16.0384 11.0882 16.188 11.1502 16.2983 11.2605C16.4086 11.3708 16.4706 11.5205 16.4706 11.6765V12.2647H12.9412V11.6765C12.9412 11.5205 13.0032 11.3708 13.1135 11.2605C13.2238 11.1502 13.3734 11.0882 13.5294 11.0882Z" fill="white"/>
</svg>
